<svg width="0" height="0" class="hidden">
  <symbol fill="none" xmlns="http://www.w3.org/2000/svg" viewBox="0 0 24 24" id="email-svgrepo-com">
    <g id="style=bulk">
      <g id="email">
        <path id="vector (Stroke)" fill-rule="evenodd" clip-rule="evenodd" d="M2.86466 4.1379C3.92465 3.15363 5.38503 2.75 7 2.75H17C18.615 2.75 20.0754 3.15363 21.1353 4.1379C22.2054 5.13152 22.75 6.60705 22.75 8.5V15.5C22.75 17.393 22.2054 18.8685 21.1353 19.8621C20.0754 20.8464 18.615 21.25 17 21.25H7C5.38503 21.25 3.92465 20.8464 2.86466 19.8621C1.79462 18.8685 1.25 17.393 1.25 15.5V8.5C1.25 6.60705 1.79462 5.13152 2.86466 4.1379Z" fill="#BFBFBF"></path>
        <path id="vector (Stroke)_2" fill-rule="evenodd" clip-rule="evenodd" d="M19.3633 7.31026C19.6166 7.63802 19.5562 8.10904 19.2285 8.3623L13.6814 12.6486C12.691 13.4138 11.3089 13.4138 10.3185 12.6486L4.77144 8.3623C4.44367 8.10904 4.38328 7.63802 4.63655 7.31026C4.88982 6.98249 5.36083 6.9221 5.6886 7.17537L11.2356 11.4616C11.6858 11.8095 12.3141 11.8095 12.7642 11.4616L18.3113 7.17537C18.6391 6.9221 19.1101 6.98249 19.3633 7.31026Z" fill="#000000"></path>
      </g>
    </g>
  </symbol>
  <symbol version="1.1" id="facebook-svgrepo-com" xmlns="http://www.w3.org/2000/svg" xmlns:xlink="http://www.w3.org/1999/xlink" enable-background="new 0 0 32 32" xml:space="preserve" viewBox="0 0 32 32">
    <g>
      <path fill="#808184" d="M16-0.035C7.159-0.035-0.035,7.159-0.035,16S7.159,32.035,16,32.035S32.035,24.841,32.035,16
		S24.841-0.035,16-0.035z M16,30.965C7.748,30.965,1.035,24.252,1.035,16S7.748,1.035,16,1.035S30.965,7.748,30.965,16
		S24.252,30.965,16,30.965z"></path>
      <path fill="#808184" d="M19.5,7h-2.668C13.652,7,13,8.737,13,11.345L13.002,13H11.5c-0.276,0-0.5,0.224-0.5,0.5v3
		c0,0.276,0.224,0.5,0.5,0.5H13v7.5c0,0.276,0.224,0.5,0.5,0.5h3.058c0.276,0,0.5-0.224,0.5-0.5L17.06,17h2.44
		c0.276,0,0.5-0.224,0.5-0.5v-3c0-0.276-0.224-0.5-0.5-0.5h-2.441l0.003-1.396c0-0.673,0-0.673,0.629-0.674L19.48,11
		c0.127,0.004,0.268-0.045,0.366-0.139S20,10.636,20,10.5v-3C20,7.224,19.776,7,19.5,7z M19,9.98l-1.289-0.05
		c-1.521,0-1.648,0.827-1.648,1.672l-0.004,1.896c0,0.133,0.052,0.26,0.146,0.354C16.298,13.947,16.425,14,16.558,14H19v2h-2.44
		c-0.276,0-0.5,0.224-0.5,0.5L16.058,24H14v-7.5c0-0.276-0.224-0.5-0.5-0.5H12v-2h1.503c0.133,0,0.26-0.053,0.354-0.147
		c0.094-0.094,0.146-0.221,0.146-0.354L14,11.344C14,9.079,14.424,8,16.832,8H19V9.98z"></path>
    </g>
  </symbol>
  <symbol fill="none" xmlns="http://www.w3.org/2000/svg" viewBox="0 0 24 24" id="github-square-svgrepo-com">
    <path opacity="0.1" fill-rule="evenodd" clip-rule="evenodd" d="M12 3C4.5885 3 3 4.5885 3 12C3 19.4115 4.5885 21 12 21C19.4115 21 21 19.4115 21 12C21 4.5885 19.4115 3 12 3ZM14.2695 9.03471C15.1872 8.34452 15.7204 8.25293 15.9299 8.25017C16.1326 8.86788 16.1588 9.54654 16.0042 10.1835C15.9945 10.2234 15.9842 10.263 15.9731 10.3025C15.941 10.4168 15.9647 10.5393 16.0366 10.6333L16.0377 10.6347C16.0521 10.6537 16.0664 10.6728 16.0805 10.6922C16.5194 11.2949 16.7603 12.0687 16.7497 12.8714L16.7496 12.8747C16.7496 14.5738 16.3076 15.5644 15.6994 16.1583C15.0859 16.7572 14.2627 16.9938 13.4137 17.0968L13.3898 17.0997L13.3777 17.1014C12.443 17.2601 11.5456 17.2688 10.6078 17.1286L10.604 17.1281L10.5687 17.1233C9.72415 17.0085 8.90483 16.7616 8.29455 16.1566C7.68912 15.5564 7.25036 14.5643 7.25038 12.8747L7.25034 12.8714C7.23972 12.0687 7.48056 11.2949 7.91949 10.6922C7.93482 10.6711 7.9504 10.6503 7.96621 10.6297C8.03648 10.538 8.05962 10.4184 8.02812 10.3068L8.02599 10.2993C8.01523 10.2608 8.00513 10.2222 7.99569 10.1834C7.84087 9.54684 7.86561 8.86863 8.0659 8.25016C8.27679 8.2528 8.81228 8.34432 9.73045 9.03473C9.76619 9.0616 9.80249 9.08937 9.83937 9.11807C9.93139 9.19 10.0529 9.21205 10.1644 9.17703L10.1657 9.17661C10.2268 9.15768 10.2882 9.13972 10.3496 9.12272C11.4349 8.82255 12.5651 8.82255 13.6504 9.12272C13.7088 9.13888 13.7671 9.15592 13.8253 9.17382L13.8277 9.17457C13.9431 9.21015 14.0704 9.18836 14.1678 9.11252C14.2022 9.08578 14.2361 9.05985 14.2695 9.03471Z" fill="#323232"></path>
    <path d="M13.717 8.88177C12.5881 8.56954 11.4119 8.56954 10.283 8.88177C10.2637 8.8871 10.2444 8.89254 10.2252 8.89808C10.1067 8.93218 9.97923 8.909 9.8807 8.83491V8.83491C8.69311 7.94193 8.07278 7.98181 7.91927 8.01161V8.01161C7.8946 8.0164 7.87585 8.03481 7.86732 8.05844C7.86516 8.06441 7.86303 8.07038 7.8609 8.07636C7.61639 8.76505 7.57904 9.52813 7.75277 10.2425C7.76289 10.2841 7.77371 10.3255 7.78525 10.3667C7.78601 10.3694 7.78677 10.3721 7.78753 10.3748C7.79754 10.4102 7.7902 10.4483 7.7678 10.4776V10.4776C7.75074 10.4998 7.73394 10.5223 7.71741 10.545C7.24479 11.1939 6.98907 12.0213 7.00036 12.8747C7.00036 16.3399 8.80396 17.1358 10.535 17.3711L10.5708 17.3758C11.5347 17.5199 12.4587 17.511 13.4195 17.3479L13.4438 17.345C15.1832 17.1339 16.9996 16.3587 16.9996 12.8747C17.0109 12.0213 16.7552 11.1939 16.2826 10.545C16.2674 10.5242 16.252 10.5035 16.2364 10.483C16.236 10.4825 16.2356 10.482 16.2352 10.4815C16.211 10.4498 16.203 10.4085 16.2138 10.3701V10.3701C16.2257 10.3277 16.2368 10.2852 16.2471 10.2425C16.421 9.52611 16.3815 8.76076 16.1329 8.07176C16.1313 8.06753 16.1298 8.06331 16.1283 8.05909C16.1195 8.03503 16.1004 8.01628 16.0752 8.01142V8.01142C15.921 7.98164 15.3041 7.94381 14.1193 8.83491V8.83491C14.0208 8.90896 13.8933 8.93197 13.7748 8.89804C13.7556 8.89252 13.7363 8.8871 13.717 8.88177Z" stroke="#323232" stroke-width="2" stroke-linecap="round" stroke-linejoin="round"></path>
    <path d="M3 12C3 4.5885 4.5885 3 12 3C19.4115 3 21 4.5885 21 12C21 19.4115 19.4115 21 12 21C4.5885 21 3 19.4115 3 12Z" stroke="#323232" stroke-width="2"></path>
  </symbol>
  <symbol fill="none" xmlns="http://www.w3.org/2000/svg" viewBox="0 0 24 24" id="instagram-svgrepo-com">
    <path d="M9 22H15C20 22 22 20 22 15V9C22 4 20 2 15 2H9C4 2 2 4 2 9V15C2 20 4 22 9 22Z" stroke="#292D32" stroke-width="1.5" stroke-linecap="round" stroke-linejoin="round"></path>
    <path opacity="0.34" d="M12 15.5C13.933 15.5 15.5 13.933 15.5 12C15.5 10.067 13.933 8.5 12 8.5C10.067 8.5 8.5 10.067 8.5 12C8.5 13.933 10.067 15.5 12 15.5Z" stroke="#292D32" stroke-width="1.5" stroke-linecap="round" stroke-linejoin="round"></path>
    <path opacity="0.34" d="M17.6361 7H17.6477" stroke="#292D32" stroke-width="2" stroke-linecap="round" stroke-linejoin="round"></path>
  </symbol>
  <symbol version="1.1" id="linkedin-svgrepo-com (1)" xmlns="http://www.w3.org/2000/svg" xmlns:xlink="http://www.w3.org/1999/xlink" enable-background="new 0 0 32 32" xml:space="preserve" viewBox="0 0 32 32">
    <g>
      <path fill="#808184" d="M12.5,12h-3C9.224,12,9,12.224,9,12.5v11C9,23.776,9.224,24,9.5,24h3c0.276,0,0.5-0.224,0.5-0.5v-11
		C13,12.224,12.776,12,12.5,12z M12,23h-2V13h2V23z"></path>
      <path fill="#808184" d="M11,7C9.897,7,9,7.897,9,9s0.897,2,2,2s2-0.897,2-2S12.103,7,11,7z M11,10c-0.552,0-1-0.449-1-1
		s0.448-1,1-1s1,0.449,1,1S11.552,10,11,10z"></path>
      <path fill="#808184" d="M19.515,11.986c-0.534,0-1.097,0.119-1.554,0.32C17.886,12.126,17.707,12,17.5,12h-3
		c-0.276,0-0.5,0.224-0.5,0.5v11c0,0.276,0.224,0.5,0.5,0.5h3c0.276,0,0.5-0.224,0.5-0.5l-0.002-6.661
		c0-0.003-0.012-0.336,0.2-0.565C18.365,16.092,18.65,16,19.044,16C19.696,16,20,16.279,20,16.879V23.5c0,0.276,0.224,0.5,0.5,0.5h3
		c0.276,0,0.5-0.224,0.5-0.5v-6.842C24,13.21,21.584,11.986,19.515,11.986z M23,23h-2v-6.121C21,15.72,20.251,15,19.044,15
		c-0.684,0-1.216,0.2-1.581,0.595c-0.507,0.549-0.468,1.246-0.463,1.284V23h-2V13h2v0.355c0,0.276,0.224,0.5,0.5,0.5
		c0.245,0,0.448-0.176,0.491-0.408c0.134-0.146,0.722-0.46,1.523-0.46c0.817,0,3.485,0.265,3.485,3.671V23z"></path>
      <path fill="#808184" d="M16-0.035C7.158-0.035-0.034,7.159-0.034,16S7.158,32.035,16,32.035S32.034,24.841,32.034,16
		S24.842-0.035,16-0.035z M16,30.965C7.748,30.965,1.034,24.252,1.034,16S7.748,1.035,16,1.035S30.966,7.748,30.966,16
		S24.252,30.965,16,30.965z"></path>
    </g>
  </symbol>
  <symbol xmlns="http://www.w3.org/2000/svg" viewBox="0 0 20 20" id="linkedin-svgrepo-com">
    <path fill="#555" d="M17.0391667,17.0433333 L14.0775,17.0433333 L14.0775,12.4025 C14.0775,11.2958333 14.055,9.87166667 12.5341667,9.87166667 C10.99,9.87166667 10.7541667,11.0758333 10.7541667,12.3208333 L10.7541667,17.0433333 L7.7925,17.0433333 L7.7925,7.5 L10.6375,7.5 L10.6375,8.80083333 L10.6758333,8.80083333 C11.0733333,8.05083333 12.04,7.25916667 13.4841667,7.25916667 C16.485,7.25916667 17.04,9.23416667 17.04,11.805 L17.04,17.0433333 L17.0391667,17.0433333 Z M4.4475,6.19416667 C3.49416667,6.19416667 2.72833333,5.4225 2.72833333,4.47333333 C2.72833333,3.525 3.495,2.75416667 4.4475,2.75416667 C5.3975,2.75416667 6.1675,3.525 6.1675,4.47333333 C6.1675,5.4225 5.39666667,6.19416667 4.4475,6.19416667 Z M5.9325,17.0433333 L2.9625,17.0433333 L2.9625,7.5 L5.9325,7.5 L5.9325,17.0433333 Z M18.5208333,0 L1.47583333,0 C0.66,0 0,0.645 0,1.44083333 L0,18.5591667 C0,19.3558333 0.66,20 1.47583333,20 L18.5183333,20 C19.3333333,20 20,19.3558333 20,18.5591667 L20,1.44083333 C20,0.645 19.3333333,0 18.5183333,0 L18.5208333,0 Z"></path>
  </symbol>
  <symbol fill="none" xmlns="http://www.w3.org/2000/svg" viewBox="0 0 24 24" id="menu-1-svgrepo-com">
    <path d="M3 7H21" stroke="#292D32" stroke-width="1.5" stroke-linecap="round"></path>
    <path opacity="0.34" d="M3 12H21" stroke="#292D32" stroke-width="1.5" stroke-linecap="round"></path>
    <path d="M3 17H21" stroke="#292D32" stroke-width="1.5" stroke-linecap="round"></path>
  </symbol>
  <symbol fill="none" xmlns="http://www.w3.org/2000/svg" viewBox="0 0 24 24" id="phone-svgrepo-com">
    <path opacity="0.1" d="M3 6.5C3 14.5081 9.49187 21 17.5 21C18.166 21 18.8216 20.9551 19.4637 20.8682C20.3747 20.7448 21 19.9292 21 19.01V16.4415C21 15.5807 20.4491 14.8164 19.6325 14.5442L16.4841 13.4947C15.6836 13.2279 14.8252 13.699 14.6206 14.5177C14.3475 15.6102 12.987 15.987 12.1907 15.1907L8.80926 11.8093C8.01301 11.013 8.38984 9.65254 9.48229 9.37943C10.301 9.17476 10.7721 8.31644 10.5053 7.51586L9.45585 4.36754C9.18362 3.55086 8.41934 3 7.55848 3H4.99004C4.0708 3 3.25518 3.62533 3.13185 4.53627C3.0449 5.17845 3 5.83398 3 6.5Z" fill="#323232"></path>
    <path d="M3 6.5C3 14.5081 9.49187 21 17.5 21C18.166 21 18.8216 20.9551 19.4637 20.8682C20.3747 20.7448 21 19.9292 21 19.01V16.4415C21 15.5807 20.4491 14.8164 19.6325 14.5442L16.4841 13.4947C15.6836 13.2279 14.8252 13.699 14.6206 14.5177C14.3475 15.6102 12.987 15.987 12.1907 15.1907L8.80926 11.8093C8.01301 11.013 8.38984 9.65254 9.48229 9.37943C10.301 9.17476 10.7721 8.31644 10.5053 7.51586L9.45585 4.36754C9.18362 3.55086 8.41934 3 7.55848 3H4.99004C4.0708 3 3.25518 3.62533 3.13185 4.53627C3.0449 5.17845 3 5.83398 3 6.5Z" stroke="#323232" stroke-width="2" stroke-linejoin="round"></path>
  </symbol>
  <symbol version="1.1" id="twitter-bird-svgrepo-com" xmlns="http://www.w3.org/2000/svg" xmlns:xlink="http://www.w3.org/1999/xlink" enable-background="new 0 0 32 32" xml:space="preserve" viewBox="0 0 32 32">
    <g>
      <path fill="#808184" d="M16-0.035C7.159-0.035-0.035,7.159-0.035,16S7.159,32.035,16,32.035S32.035,24.841,32.035,16
		S24.841-0.035,16-0.035z M16,30.965C7.748,30.965,1.035,24.252,1.035,16S7.748,1.035,16,1.035S30.965,7.748,30.965,16
		S24.252,30.965,16,30.965z"></path>
      <path fill="#808184" d="M24.797,11.082c-0.027,0.012-0.055,0.024-0.083,0.036c0.131-0.228,0.238-0.471,0.319-0.725
		c0.063-0.198-0.002-0.414-0.165-0.543c-0.163-0.129-0.388-0.145-0.566-0.039c-0.522,0.31-1.083,0.538-1.673,0.681
		c-0.693-0.632-1.608-0.99-2.553-0.99c-2.086,0-3.783,1.696-3.783,3.781c0,0.066,0.001,0.131,0.005,0.197
		c-2.259-0.271-4.346-1.415-5.797-3.195c-0.104-0.127-0.262-0.201-0.427-0.183c-0.164,0.013-0.31,0.105-0.393,0.247
		c-0.334,0.574-0.512,1.232-0.512,1.902c0,0.667,0.15,1.29,0.432,1.832c-0.147-0.03-0.295,0.025-0.412,0.116
		C9.071,14.292,9,14.458,9,14.611c0,1.157,0.547,2.218,1.422,2.921c-0.007,0.007-0.014,0.014-0.021,0.022
		c-0.117,0.132-0.155,0.316-0.102,0.484c0.356,1.11,1.194,1.968,2.242,2.373c-1.063,0.542-2.3,0.752-3.487,0.616
		C8.83,21,8.605,21.137,8.526,21.356c-0.078,0.219,0.005,0.463,0.202,0.589c1.587,1.017,3.42,1.554,5.302,1.554
		c6.159,0,9.839-5.002,9.839-9.839c0-0.06,0-0.12-0.001-0.18c0.601-0.466,1.12-1.025,1.547-1.664c0.124-0.185,0.11-0.429-0.033-0.6
		C25.239,11.046,25.001,10.993,24.797,11.082z M23.068,12.829c-0.138,0.099-0.216,0.261-0.208,0.431
		c0.006,0.133,0.009,0.267,0.009,0.4c0,4.345-3.306,8.839-8.839,8.839c-1.038,0-2.059-0.182-3.023-0.534
		c1.145-0.198,2.218-0.674,3.152-1.406c0.167-0.13,0.233-0.352,0.166-0.552c-0.067-0.201-0.253-0.337-0.465-0.341
		c-0.928-0.017-1.766-0.488-2.266-1.227c0.246-0.015,0.482-0.056,0.742-0.126c0.224-0.061,0.376-0.268,0.368-0.5
		c-0.008-0.231-0.174-0.427-0.401-0.473c-1.079-0.217-1.94-1.047-2.212-2.076c0.045,0.016,0.086,0.03,0.125,0.044
		c0.251,0.09,0.45,0.162,0.828,0.173c0.231,0.001,0.423-0.135,0.492-0.348s-0.013-0.444-0.198-0.568
		c-0.741-0.495-1.166-1.339-1.166-2.316c0-0.247,0.033-0.491,0.096-0.726c1.729,1.795,4.088,2.879,6.588,3.005
		c0.155,0.017,0.308-0.059,0.408-0.179c0.101-0.12,0.139-0.281,0.104-0.434c-0.048-0.207-0.072-0.42-0.072-0.635
		c0-1.534,1.249-2.781,2.783-2.781c0.767,0,1.507,0.32,2.031,0.879c0.118,0.125,0.292,0.181,0.462,0.148
		c0.221-0.044,0.439-0.098,0.654-0.162c-0.114,0.096-0.237,0.184-0.366,0.262c-0.203,0.121-0.292,0.367-0.216,0.59
		c0.077,0.223,0.303,0.363,0.532,0.335c0.101-0.012,0.202-0.026,0.302-0.042C23.345,12.622,23.209,12.728,23.068,12.829z"></path>
    </g>
  </symbol>
</svg>